<svg xmlns="http://www.w3.org/2000/svg" xmlns:xlink="http://www.w3.org/1999/xlink" width="100" zoomAndPan="magnify" viewBox="0 0 75 74.999997" height="100" preserveAspectRatio="xMidYMid meet" version="1.0"><defs><clipPath id="id1"><path d="M 0 12.140625 L 75 12.140625 L 75 20 L 0 20 Z M 0 12.140625 " clip-rule="nonzero"/></clipPath></defs><g clip-path="url(#id1)"><path fill="#000000" d="M 3.847656 19.304688 L 71.152344 19.304688 C 73.144531 19.304688 74.757812 17.683594 74.757812 15.679688 C 74.757812 13.675781 73.144531 12.054688 71.152344 12.054688 L 3.847656 12.054688 C 1.855469 12.054688 0.242188 13.675781 0.242188 15.679688 C 0.242188 17.683594 1.855469 19.304688 3.847656 19.304688 Z M 3.847656 19.304688 " fill-opacity="1" fill-rule="nonzero"/></g><path fill="#000000" d="M 71.152344 33.894531 L 3.847656 33.894531 C 1.855469 33.894531 0.242188 35.515625 0.242188 37.519531 C 0.242188 39.523438 1.855469 41.144531 3.847656 41.144531 L 71.152344 41.144531 C 73.144531 41.144531 74.757812 39.523438 74.757812 37.519531 C 74.757812 35.515625 73.144531 33.894531 71.152344 33.894531 Z M 71.152344 33.894531 " fill-opacity="1" fill-rule="nonzero"/><path fill="#000000" d="M 71.152344 55.734375 L 3.847656 55.734375 C 1.855469 55.734375 0.242188 57.355469 0.242188 59.359375 C 0.242188 61.363281 1.855469 62.984375 3.847656 62.984375 L 71.152344 62.984375 C 73.144531 62.984375 74.757812 61.363281 74.757812 59.359375 C 74.757812 57.355469 73.144531 55.734375 71.152344 55.734375 Z M 71.152344 55.734375 " fill-opacity="1" fill-rule="nonzero"/></svg>